# xmcd CD database file generated by Grip 3.3.1
# 
# Track frame offsets:
#       150
#       22084
#       46505
#       71384
#       98141
#       123292
#       155972
#       181056
#       208503
# 
# Disc length: 3320 seconds
# 
# Revision: 1
# Processed by: cddbd v1.5.2PL0 Copyright (c) Steve Scherf et al.
# Submitted via: Grip 3.3.1
# 
DISCID=700cf609
DTITLE=Hugh Masekela - Phola
DYEAR=2008
DGENRE=Jazz
TTITLE0=Mwanayu Wakula
TTITLE1=Ghana
TTITLE2=Bring it back home
TTITLE3=Malungelo
TTITLE4=Moz
TTITLE5=Sonnyboy
TTITLE6=Weather
TTITLE7=The joke of life
TTITLE8=Hunger
EXTD=YEAR: 2008
EXTT0=
EXTT1=
EXTT2=
EXTT3=
EXTT4=
EXTT5=
EXTT6=
EXTT7=
EXTT8=
PLAYORDER=
